<svg viewBox="0 0 830 103" fill="none" xmlns="http://www.w3.org/2000/svg">
<path d="M211.081 1.69588H233.975V100.622H211.081V1.69588ZM166.14 100.622H143.246V1.69588H166.14V100.622ZM212.777 60.0625H164.444V40.7012H212.777V60.0625Z" fill="white"/>
<path d="M292.571 41.5491H340.197V59.3559H292.571V41.5491ZM294.266 82.2503H348.111V100.622H271.513V1.69588H346.274V20.0679H294.266V82.2503Z" fill="white"/>
<path d="M380.459 100.622V1.69588H399.397L457.763 72.923H448.577V1.69588H471.189V100.622H452.393L393.885 29.3953H403.071V100.622H380.459Z" fill="white"/>
<path d="M541.232 102.318C533.317 102.318 525.733 101.282 518.479 99.2092C511.224 97.0422 505.383 94.2628 500.954 90.8711L508.727 73.6296C512.967 76.6445 517.96 79.1412 523.707 81.1197C529.549 83.0041 535.437 83.9462 541.373 83.9462C545.895 83.9462 549.523 83.5222 552.255 82.6743C555.081 81.7321 557.154 80.4602 558.473 78.8586C559.792 77.2569 560.452 75.4197 560.452 73.3469C560.452 70.7089 559.415 68.6362 557.342 67.1287C555.27 65.527 552.538 64.2551 549.146 63.313C545.754 62.2766 541.985 61.3344 537.84 60.4865C533.789 59.5443 529.69 58.4138 525.545 57.0947C521.493 55.7757 517.772 54.0798 514.38 52.0071C510.988 49.9343 508.209 47.2021 506.042 43.8103C503.969 40.4185 502.933 36.0846 502.933 30.8085C502.933 25.1556 504.44 20.0208 507.455 15.4043C510.564 10.6935 515.181 6.97196 521.305 4.2397C527.523 1.41323 535.296 0 544.623 0C550.842 0 556.966 0.753725 562.995 2.26117C569.025 3.67441 574.348 5.84137 578.965 8.76206L571.899 26.1449C567.282 23.5068 562.666 21.5754 558.049 20.3506C553.433 19.0316 548.91 18.3721 544.482 18.3721C540.054 18.3721 536.427 18.8903 533.6 19.9266C530.774 20.963 528.748 22.3291 527.523 24.025C526.298 25.6267 525.686 27.511 525.686 29.678C525.686 32.2218 526.722 34.2945 528.795 35.8962C530.868 37.4036 533.6 38.6284 536.992 39.5706C540.384 40.5128 544.105 41.4549 548.156 42.3971C552.302 43.3392 556.4 44.4227 560.452 45.6475C564.597 46.8723 568.366 48.5211 571.758 50.5939C575.149 52.6666 577.882 55.3989 579.954 58.7906C582.121 62.1824 583.205 66.4692 583.205 71.6511C583.205 77.2098 581.65 82.2974 578.541 86.914C575.432 91.5306 570.768 95.2521 564.55 98.0786C558.426 100.905 550.653 102.318 541.232 102.318Z" fill="white"/>
<path d="M680.816 1.69588H703.711V100.622H680.816V1.69588ZM635.875 100.622H612.981V1.69588H635.875V100.622ZM682.512 60.0625H634.179V40.7012H682.512V60.0625Z" fill="white"/>
<path d="M785.2 102.318C771.162 102.318 760.186 98.4083 752.272 90.5884C744.358 82.7685 740.401 71.604 740.401 57.0947V1.69588H763.295V56.2468C763.295 65.6684 765.227 72.4519 769.089 76.5974C772.952 80.7429 778.37 82.8156 785.342 82.8156C792.314 82.8156 797.731 80.7429 801.594 76.5974C805.457 72.4519 807.388 65.6684 807.388 56.2468V1.69588H830V57.0947C830 71.604 826.043 82.7685 818.129 90.5884C810.215 98.4083 799.238 102.318 785.2 102.318Z" fill="white"/>
<path fill-rule="evenodd" clip-rule="evenodd" d="M102.318 0L102.318 102.318L51.1592 85.2652L6.90963e-05 102.318L7.35688e-05 -4.47247e-06L51.1592 17.053L102.318 0Z" fill="url(#paint0_linear_1923_802)"/>
<defs>
<linearGradient id="paint0_linear_1923_802" x1="7.40577e-05" y1="51.1591" x2="102.318" y2="51.1591" gradientUnits="userSpaceOnUse">
<stop stop-color="#FF637E"/>
<stop offset="0.5" stop-color="#A684FF"/>
<stop offset="1" stop-color="#51A2FF"/>
</linearGradient>
</defs>
</svg>
