<svg width="763" height="95" viewBox="0 0 763 95" fill="none" xmlns="http://www.w3.org/2000/svg">
<path d="M194.042 1.55898H215.088V92.4998H194.042V1.55898ZM152.728 92.4998H131.682V1.55898H152.728V92.4998ZM195.601 55.2141H151.169V37.4157H195.601V55.2141Z" fill="#03021B"/>
<path d="M268.953 38.1952H312.735V54.5645H268.953V38.1952ZM270.512 75.6108H320.01V92.4998H249.596V1.55898H318.321V18.448H270.512V75.6108Z" fill="#03021B"/>
<path d="M349.747 92.4998V1.55898H367.156L420.811 67.0364H412.367V1.55898H433.153V92.4998H415.874L362.089 27.0224H370.534V92.4998H349.747Z" fill="#03021B"/>
<path d="M497.541 94.0588C490.266 94.0588 483.294 93.1061 476.625 91.2007C469.956 89.2087 464.586 86.6537 460.516 83.5357L467.661 67.686C471.558 70.4575 476.149 72.7527 481.432 74.5715C486.802 76.3037 492.215 77.1698 497.671 77.1698C501.829 77.1698 505.163 76.7801 507.675 76.0006C510.273 75.1345 512.179 73.9652 513.391 72.4929C514.604 71.0205 515.21 69.3316 515.21 67.4262C515.21 65.0011 514.257 63.0956 512.352 61.7099C510.446 60.2375 507.935 59.0683 504.817 58.2022C501.699 57.2494 498.234 56.3833 494.424 55.6038C490.699 54.7377 486.932 53.6984 483.121 52.4859C479.397 51.2733 475.976 49.7143 472.858 47.8089C469.74 45.9035 467.185 43.3918 465.193 40.2738C463.287 37.1558 462.334 33.1718 462.334 28.3216C462.334 23.125 463.72 18.4047 466.492 14.1608C469.35 9.83027 473.594 6.40916 479.223 3.89746C484.94 1.29915 492.085 0 500.659 0C506.376 0 512.005 0.692882 517.548 2.07864C523.092 3.3778 527.985 5.36984 532.229 8.05476L525.733 24.0344C521.489 21.6093 517.245 19.8338 513.001 18.7078C508.758 17.4953 504.6 16.889 500.53 16.889C496.459 16.889 493.124 17.3654 490.526 18.3181C487.928 19.2708 486.066 20.5267 484.94 22.0856C483.814 23.558 483.251 25.2902 483.251 27.2823C483.251 29.6207 484.204 31.5262 486.109 32.9985C488.014 34.3843 490.526 35.5102 493.644 36.3763C496.762 37.2424 500.183 38.1086 503.907 38.9747C507.718 39.8408 511.486 40.8368 515.21 41.9627C519.021 43.0886 522.485 44.6043 525.603 46.5098C528.721 48.4152 531.233 50.9269 533.138 54.0449C535.13 57.1628 536.126 61.1036 536.126 65.8672C536.126 70.9772 534.697 75.6541 531.839 79.898C528.981 84.142 524.694 87.5631 518.978 90.1614C513.348 92.7597 506.203 94.0588 497.541 94.0588Z" fill="#03021B"/>
<path d="M625.858 1.55898H646.905V92.4998H625.858V1.55898ZM584.545 92.4998H563.499V1.55898H584.545V92.4998ZM627.417 55.2141H582.986V37.4157H627.417V55.2141Z" fill="#03021B"/>
<path d="M721.816 94.0588C708.911 94.0588 698.821 90.4645 691.546 83.2759C684.271 76.0872 680.633 65.8239 680.633 52.4859V1.55898H701.679V51.7064C701.679 60.3674 703.455 66.6034 707.006 70.4142C710.557 74.2251 715.537 76.1305 721.946 76.1305C728.355 76.1305 733.336 74.2251 736.887 70.4142C740.438 66.6034 742.213 60.3674 742.213 51.7064V1.55898H763V52.4859C763 65.8239 759.362 76.0872 752.087 83.2759C744.811 90.4645 734.721 94.0588 721.816 94.0588Z" fill="#03021B"/>
<path fill-rule="evenodd" clip-rule="evenodd" d="M94 0.0588379L94 94.0588L47 78.3922L1.11499e-05 94.0588L1.52588e-05 0.0588338L47 15.7255L94 0.0588379Z" fill="url(#paint0_linear_1091_1039)"/>
<defs>
<linearGradient id="paint0_linear_1091_1039" x1="1.32044e-05" y1="47.0588" x2="94" y2="47.0588" gradientUnits="userSpaceOnUse">
<stop stop-color="#FF637E"/>
<stop offset="0.5" stop-color="#A684FF"/>
<stop offset="1" stop-color="#51A2FF"/>
</linearGradient>
</defs>
</svg>
